<?xml version="1.0" encoding="utf-8"?>
<!-- Generator: Adobe Illustrator 22.1.0, SVG Export Plug-In . SVG Version: 6.00 Build 0)  -->
<svg version="1.1" id="Calque_1" xmlns="http://www.w3.org/2000/svg" xmlns:xlink="http://www.w3.org/1999/xlink" x="0px" y="0px" 
	viewBox="0 0 24 24" width="100%" height="100%" style="enable-background:new 0 0 24 24;" xml:space="preserve">
<path class="app-menu-icon-primary-color-without-stroke" d="M17,10.5V7c0-0.6-0.5-1-1-1H4C3.5,6,3,6.4,3,7v10c0,0.5,0.5,1,1,1h12c0.5,0,1-0.5,1-1v-3.5l4,4v-11L17,10.5z" style="stroke:#2196F3;"/>
<g>
	<path class="app-menu-icon-accent-color" d="M7.9,13.6c-1.2,0-3.6,0.6-3.6,1.8v1.3h7.2v-1.3C11.5,14.2,9.1,13.6,7.9,13.6 M7.9,12.5c0.9,0,1.5-0.7,1.5-1.5
		S8.7,9.5,7.9,9.5S6.3,10.1,6.3,11S7,12.5,7.9,12.5" style="fill:#FFC107;"/>
	<g>
		<path d="M12,13.6c-0.1,0-0.3,0-0.5,0c0.6,0.4,1,1,1,1.8v1.3h3.1v-1.3C15.6,14.2,13.2,13.6,12,13.6" style="fill:#FFFFFF;"/>
		<circle cx="12" cy="11" r="1.5" style="fill:#FFFFFF;"/>
	</g>
</g>
</svg>
